TITLE "133.500, flac"
FILE "133.500.flac" WAVE

TRACK 01 AUDIO
TITLE "2020.02.06-05:59.33:092521"
INDEX 01 00:32:57

TRACK 02 AUDIO
TITLE "2020.02.06-05:59.38:252432"
INDEX 00 00:37:51
INDEX 01 00:37:69

TRACK 03 AUDIO
TITLE "2020.02.06-05:59.59:893272"
INDEX 00 00:43:39
INDEX 01 00:59:42

TRACK 04 AUDIO
TITLE "2020.02.06-06:01.10:172667"
INDEX 00 01:09:51
INDEX 01 02:09:63

TRACK 05 AUDIO
TITLE "2020.02.06-06:01.15:212647"
INDEX 00 02:14:57
INDEX 01 02:14:66

TRACK 06 AUDIO
TITLE "2020.02.06-06:01.20:852732"
INDEX 00 02:18:55
INDEX 01 02:20:39

TRACK 07 AUDIO
TITLE "2020.02.06-06:01.26:272544"
INDEX 00 02:25:63
INDEX 01 02:25:70

TRACK 08 AUDIO
TITLE "2020.02.06-06:01.34:292459"
INDEX 00 02:33:43
INDEX 01 02:33:72

TRACK 09 AUDIO
TITLE "2020.02.06-06:01.41:072662"
INDEX 00 02:39:04
INDEX 01 02:40:55

TRACK 10 AUDIO
TITLE "2020.02.06-06:01.50:334629"
INDEX 00 02:48:52
INDEX 01 02:50:00

TRACK 11 AUDIO
TITLE "2020.02.06-06:01.55:954654"
INDEX 00 02:55:20
INDEX 01 02:55:47

TRACK 12 AUDIO
TITLE "2020.02.06-06:02.02:172347"
INDEX 00 03:00:14
INDEX 01 03:01:63

TRACK 13 AUDIO
TITLE "2020.02.06-06:02.18:072715"
INDEX 00 03:14:30
INDEX 01 03:17:55

TRACK 14 AUDIO
TITLE "2020.02.06-06:02.22:077617"
INDEX 00 03:21:45
INDEX 01 03:21:56

TRACK 15 AUDIO
TITLE "2020.02.06-06:02.54:432623"
INDEX 00 03:25:65
INDEX 01 03:54:07

TRACK 16 AUDIO
TITLE "2020.02.06-06:03.03:392878"
INDEX 00 04:02:34
INDEX 01 04:03:04

TRACK 17 AUDIO
TITLE "2020.02.06-06:03.23:556505"
INDEX 00 04:11:27
INDEX 01 04:23:17

TRACK 18 AUDIO
TITLE "2020.02.06-06:04.47:675585"
INDEX 00 04:36:48
INDEX 01 05:47:26

TRACK 19 AUDIO
TITLE "2020.02.06-06:05.26:373259"
INDEX 00 05:56:51
INDEX 01 06:26:03

TRACK 20 AUDIO
TITLE "2020.02.06-06:05.42:872438"
INDEX 00 06:41:55
INDEX 01 06:42:40

TRACK 21 AUDIO
TITLE "2020.02.06-06:05.57:392614"
INDEX 00 06:54:69
INDEX 01 06:57:04

TRACK 22 AUDIO
TITLE "2020.02.06-06:06.01:172392"
INDEX 00 07:00:51
INDEX 01 07:00:63

TRACK 23 AUDIO
TITLE "2020.02.06-06:06.28:577479"
INDEX 00 07:05:51
INDEX 01 07:28:18

TRACK 24 AUDIO
TITLE "2020.02.06-06:06.46:653528"
INDEX 00 07:36:42
INDEX 01 07:46:24

TRACK 25 AUDIO
TITLE "2020.02.06-06:06.51:772380"
INDEX 00 07:50:72
INDEX 01 07:51:33

TRACK 26 AUDIO
TITLE "2020.02.06-06:07.29:812464"
INDEX 00 07:59:09
INDEX 01 08:29:36

TRACK 27 AUDIO
TITLE "2020.02.06-06:07.39:292567"
INDEX 00 08:37:67
INDEX 01 08:38:72

TRACK 28 AUDIO
TITLE "2020.02.06-06:07.58:392512"
INDEX 00 08:49:37
INDEX 01 08:58:04

TRACK 29 AUDIO
TITLE "2020.02.06-06:08.30:672444"
INDEX 00 09:05:00
INDEX 01 09:30:25

TRACK 30 AUDIO
TITLE "2020.02.06-06:09.11:272448"
INDEX 00 09:39:06
INDEX 01 10:10:70

TRACK 31 AUDIO
TITLE "2020.02.06-06:09.32:192410"
INDEX 00 10:18:10
INDEX 01 10:31:64

TRACK 32 AUDIO
TITLE "2020.02.06-06:09.50:552396"
INDEX 00 10:38:60
INDEX 01 10:50:16

TRACK 33 AUDIO
TITLE "2020.02.06-06:10.21:612547"
INDEX 00 10:58:03
INDEX 01 11:21:21

TRACK 34 AUDIO
TITLE "2020.02.06-06:10.42:632503"
INDEX 00 11:28:69
INDEX 01 11:42:22

TRACK 35 AUDIO
TITLE "2020.02.06-06:10.53:232624"
INDEX 00 11:49:73
INDEX 01 11:52:67

TRACK 36 AUDIO
TITLE "2020.02.06-06:11.15:352375"
INDEX 00 12:03:63
INDEX 01 12:15:01

TRACK 37 AUDIO
TITLE "2020.02.06-06:11.19:492526"
INDEX 00 12:18:69
INDEX 01 12:19:12

TRACK 38 AUDIO
TITLE "2020.02.06-06:11.24:932687"
INDEX 00 12:23:19
INDEX 01 12:24:45

TRACK 39 AUDIO
TITLE "2020.02.06-06:11.52:892351"
INDEX 00 12:44:04
INDEX 01 12:52:42

TRACK 40 AUDIO
TITLE "2020.02.06-06:12.08:532661"
INDEX 00 13:01:45
INDEX 01 13:08:15

TRACK 41 AUDIO
TITLE "2020.02.06-06:12.15:656990"
INDEX 00 13:15:03
INDEX 01 13:15:24

TRACK 42 AUDIO
TITLE "2020.02.06-06:12.26:212450"
INDEX 00 13:22:06
INDEX 01 13:25:66

TRACK 43 AUDIO
TITLE "2020.02.06-06:12.58:212637"
INDEX 00 13:34:22
INDEX 01 13:57:66

TRACK 44 AUDIO
TITLE "2020.02.06-06:13.56:272495"
INDEX 00 14:05:54
INDEX 01 14:55:70

TRACK 45 AUDIO
TITLE "2020.02.06-06:13.59:413273"
INDEX 00 14:58:70
INDEX 01 14:59:06

TRACK 46 AUDIO
TITLE "2020.02.06-06:14.19:032485"
INDEX 00 15:17:45
INDEX 01 15:18:52

TRACK 47 AUDIO
TITLE "2020.02.06-06:14.27:052716"
INDEX 00 15:23:40
INDEX 01 15:26:54

TRACK 48 AUDIO
TITLE "2020.02.06-06:14.46:772454"
INDEX 00 15:38:19
INDEX 01 15:46:33

TRACK 49 AUDIO
TITLE "2020.02.06-06:14.50:572348"
INDEX 00 15:50:00
INDEX 01 15:50:18

TRACK 50 AUDIO
TITLE "2020.02.06-06:14.57:672442"
INDEX 00 15:53:04
INDEX 01 15:57:25

TRACK 51 AUDIO
TITLE "2020.02.06-06:15.17:917877"
INDEX 00 16:04:01
INDEX 01 16:17:44

TRACK 52 AUDIO
TITLE "2020.02.06-06:15.40:454432"
INDEX 00 16:24:32
INDEX 01 16:40:09

TRACK 53 AUDIO
TITLE "2020.02.06-06:15.53:412625"
INDEX 00 16:47:74
INDEX 01 16:53:06

TRACK 54 AUDIO
TITLE "2020.02.06-06:15.58:792531"
INDEX 00 16:58:16
INDEX 01 16:58:34

TRACK 55 AUDIO
TITLE "2020.02.06-06:16.27:832547"
INDEX 00 17:09:18
INDEX 01 17:27:37

TRACK 56 AUDIO
TITLE "2020.02.06-06:16.59:392316"
INDEX 00 17:35:66
INDEX 01 17:59:04

TRACK 57 AUDIO
TITLE "2020.02.06-06:17.18:392574"
INDEX 00 18:06:58
INDEX 01 18:18:04

TRACK 58 AUDIO
TITLE "2020.02.06-06:17.23:772465"
INDEX 00 18:22:03
INDEX 01 18:23:33

TRACK 59 AUDIO
TITLE "2020.02.06-06:17.33:592643"
INDEX 00 18:32:58
INDEX 01 18:33:19

TRACK 60 AUDIO
TITLE "2020.02.06-06:17.39:336750"
INDEX 00 18:38:10
INDEX 01 18:39:00

TRACK 61 AUDIO
TITLE "2020.02.06-06:18.10:352604"
INDEX 00 18:49:51
INDEX 01 19:10:01

TRACK 62 AUDIO
TITLE "2020.02.06-06:18.14:072496"
INDEX 00 19:13:52
INDEX 01 19:13:55

TRACK 63 AUDIO
TITLE "2020.02.06-06:18.36:772457"
INDEX 00 19:17:36
INDEX 01 19:36:33

TRACK 64 AUDIO
TITLE "2020.02.06-06:18.45:012570"
INDEX 00 19:44:03
INDEX 01 19:44:51

TRACK 65 AUDIO
TITLE "2020.02.06-06:19.04:694539"
INDEX 00 19:54:27
INDEX 01 20:04:27

TRACK 66 AUDIO
TITLE "2020.02.06-06:19.13:472518"
INDEX 00 20:11:59
INDEX 01 20:13:10

TRACK 67 AUDIO
TITLE "2020.02.06-06:19.41:952513"
INDEX 00 20:34:30
INDEX 01 20:41:46

TRACK 68 AUDIO
TITLE "2020.02.06-06:19.51:773376"
INDEX 00 20:49:00
INDEX 01 20:51:33

TRACK 69 AUDIO
TITLE "2020.02.06-06:20.46:673002"
INDEX 00 21:00:00
INDEX 01 21:46:25

TRACK 70 AUDIO
TITLE "2020.02.06-06:20.55:372494"
INDEX 00 21:53:30
INDEX 01 21:55:03

TRACK 71 AUDIO
TITLE "2020.02.06-06:21.28:372509"
INDEX 00 22:02:15
INDEX 01 22:28:03

TRACK 72 AUDIO
TITLE "2020.02.06-06:22.05:094763"
INDEX 00 22:35:31
INDEX 01 23:04:57

TRACK 73 AUDIO
TITLE "2020.02.06-06:22.15:972463"
INDEX 00 23:14:72
INDEX 01 23:15:48

TRACK 74 AUDIO
TITLE "2020.02.06-06:22.41:154216"
INDEX 00 23:23:42
INDEX 01 23:40:62

TRACK 75 AUDIO
TITLE "2020.02.06-06:22.51:512605"
INDEX 00 23:50:62
INDEX 01 23:51:13

TRACK 76 AUDIO
TITLE "2020.02.06-06:23.12:396796"
INDEX 00 23:57:66
INDEX 01 24:12:05

TRACK 77 AUDIO
TITLE "2020.02.06-06:23.40:074448"
INDEX 00 24:21:21
INDEX 01 24:39:56

TRACK 78 AUDIO
TITLE "2020.02.06-06:24.17:492407"
INDEX 00 24:46:66
INDEX 01 25:17:12

TRACK 79 AUDIO
TITLE "2020.02.06-06:24.26:352491"
INDEX 00 25:24:55
INDEX 01 25:26:01

TRACK 80 AUDIO
TITLE "2020.02.06-06:24.46:993468"
INDEX 00 25:44:72
INDEX 01 25:46:49

TRACK 81 AUDIO
TITLE "2020.02.06-06:25.32:393677"
INDEX 00 25:59:09
INDEX 01 26:32:04

TRACK 82 AUDIO
TITLE "2020.02.06-06:25.37:672969"
INDEX 00 26:37:09
INDEX 01 26:37:25

TRACK 83 AUDIO
TITLE "2020.02.06-06:25.44:512616"
INDEX 00 26:44:03
INDEX 01 26:44:13

TRACK 84 AUDIO
TITLE "2020.02.06-06:26.06:954351"
INDEX 00 26:48:15
INDEX 01 27:06:47

TRACK 85 AUDIO
TITLE "2020.02.06-06:27.07:012366"
INDEX 00 27:15:29
INDEX 01 28:06:51

TRACK 86 AUDIO
TITLE "2020.02.06-06:27.43:395458"
INDEX 00 28:13:34
INDEX 01 28:43:05

TRACK 87 AUDIO
TITLE "2020.02.06-06:27.54:032531"
INDEX 00 28:53:41
INDEX 01 28:53:52

TRACK 88 AUDIO
TITLE "2020.02.06-06:28.24:536064"
INDEX 00 28:58:61
INDEX 01 29:24:15

TRACK 89 AUDIO
TITLE "2020.02.06-06:28.31:873228"
INDEX 00 29:30:74
INDEX 01 29:31:40

TRACK 90 AUDIO
TITLE "2020.02.06-06:28.48:515093"
INDEX 00 29:40:16
INDEX 01 29:48:14

TRACK 91 AUDIO
TITLE "2020.02.06-06:28.57:356590"
INDEX 00 29:50:45
INDEX 01 29:57:02

TRACK 92 AUDIO
TITLE "2020.02.06-06:29.15:872800"
INDEX 00 30:14:54
INDEX 01 30:15:40

TRACK 93 AUDIO
TITLE "2020.02.06-06:29.19:794901"
INDEX 00 30:19:27
INDEX 01 30:19:35

TRACK 94 AUDIO
TITLE "2020.02.06-06:29.26:675707"
INDEX 00 30:24:47
INDEX 01 30:26:26

TRACK 95 AUDIO
TITLE "2020.02.06-06:29.44:832351"
INDEX 00 30:33:09
INDEX 01 30:44:37

TRACK 96 AUDIO
TITLE "2020.02.06-06:29.54:236127"
INDEX 00 30:53:45
INDEX 01 30:53:68

TRACK 97 AUDIO
TITLE "2020.02.06-06:29.59:132485"
INDEX 00 30:57:66
INDEX 01 30:58:60

TRACK 98 AUDIO
TITLE "2020.02.06-06:30.35:658183"
INDEX 00 31:12:45
INDEX 01 31:35:24

TRACK 99 AUDIO
TITLE "2020.02.06-06:30.46:692738"
INDEX 00 31:43:11
INDEX 01 31:46:27

TRACK 100 AUDIO
TITLE "2020.02.06-06:31.10:272609"
INDEX 00 32:02:27
INDEX 01 32:09:70

TRACK 101 AUDIO
TITLE "2020.02.06-06:31.58:835583"
INDEX 00 32:17:07
INDEX 01 32:58:38

TRACK 102 AUDIO
TITLE "2020.02.06-06:32.48:612393"
INDEX 00 33:13:63
INDEX 01 33:48:21

TRACK 103 AUDIO
TITLE "2020.02.06-06:33.19:592431"
INDEX 00 34:13:69
INDEX 01 34:19:19

TRACK 104 AUDIO
TITLE "2020.02.06-06:33.43:612466"
INDEX 00 34:41:04
INDEX 01 34:43:21

TRACK 105 AUDIO
TITLE "2020.02.06-06:34.06:912676"
INDEX 00 34:59:43
INDEX 01 35:06:43

TRACK 106 AUDIO
TITLE "2020.02.06-06:34.31:852783"
INDEX 00 35:20:40
INDEX 01 35:31:39

TRACK 107 AUDIO
TITLE "2020.02.06-06:34.53:892519"
INDEX 00 35:45:43
INDEX 01 35:53:42

TRACK 108 AUDIO
TITLE "2020.02.06-06:35.04:752371"
INDEX 00 36:00:15
INDEX 01 36:04:31

TRACK 109 AUDIO
TITLE "2020.02.06-06:35.08:472578"
INDEX 00 36:07:55
INDEX 01 36:08:10

TRACK 110 AUDIO
TITLE "2020.02.06-06:35.13:212525"
INDEX 00 36:11:22
INDEX 01 36:12:66

TRACK 111 AUDIO
TITLE "2020.02.06-06:35.19:412486"
INDEX 00 36:19:03
INDEX 01 36:19:06

TRACK 112 AUDIO
TITLE "2020.02.06-06:35.29:312629"
INDEX 00 36:24:49
INDEX 01 36:28:73

TRACK 113 AUDIO
TITLE "2020.02.06-06:35.39:732452"
INDEX 00 36:39:18
INDEX 01 36:39:30

TRACK 114 AUDIO
TITLE "2020.02.06-06:36.53:793220"
INDEX 00 36:43:39
INDEX 01 37:53:34

TRACK 115 AUDIO
TITLE "2020.02.06-06:37.00:592807"
INDEX 00 37:55:55
INDEX 01 38:00:19

TRACK 116 AUDIO
TITLE "2020.02.06-06:37.25:972441"
INDEX 00 38:06:24
INDEX 01 38:25:48

TRACK 117 AUDIO
TITLE "2020.02.06-06:37.38:552540"
INDEX 00 38:34:31
INDEX 01 38:38:16

TRACK 118 AUDIO
TITLE "2020.02.06-06:37.48:352592"
INDEX 00 38:42:10
INDEX 01 38:48:01

TRACK 119 AUDIO
TITLE "2020.02.06-06:37.59:132547"
INDEX 00 38:57:48
INDEX 01 38:58:60

TRACK 120 AUDIO
TITLE "2020.02.06-06:38.03:952554"
INDEX 00 39:02:64
INDEX 01 39:03:46

TRACK 121 AUDIO
TITLE "2020.02.06-06:38.43:992424"
INDEX 00 39:18:06
INDEX 01 39:43:49

TRACK 122 AUDIO
TITLE "2020.02.06-06:38.59:632602"
INDEX 00 39:51:73
INDEX 01 39:59:22

TRACK 123 AUDIO
TITLE "2020.02.06-06:39.36:192628"
INDEX 00 40:09:00
INDEX 01 40:35:64

TRACK 124 AUDIO
TITLE "2020.02.06-06:39.50:297140"
INDEX 00 40:48:69
INDEX 01 40:49:72

TRACK 125 AUDIO
TITLE "2020.02.06-06:40.26:492406"
INDEX 00 41:03:30
INDEX 01 41:26:12

TRACK 126 AUDIO
TITLE "2020.02.06-06:40.41:952559"
INDEX 00 41:33:18
INDEX 01 41:41:46

TRACK 127 AUDIO
TITLE "2020.02.06-06:40.53:752541"
INDEX 00 41:49:12
INDEX 01 41:53:31

TRACK 128 AUDIO
TITLE "2020.02.06-06:41.38:472702"
INDEX 00 42:01:34
INDEX 01 42:38:10

TRACK 129 AUDIO
TITLE "2020.02.06-06:42.14:252484"
INDEX 00 42:48:55
INDEX 01 43:13:69

TRACK 130 AUDIO
TITLE "2020.02.06-06:42.22:152601"
INDEX 00 43:20:43
INDEX 01 43:21:61

TRACK 131 AUDIO
TITLE "2020.02.06-06:43.04:992629"
INDEX 00 43:30:55
INDEX 01 44:04:49

TRACK 132 AUDIO
TITLE "2020.02.06-06:43.10:292480"
INDEX 00 44:09:54
INDEX 01 44:09:72

TRACK 133 AUDIO
TITLE "2020.02.06-06:44.19:332434"
INDEX 00 44:20:58
INDEX 01 45:19:00

TRACK 134 AUDIO
TITLE "2020.02.06-06:44.28:497250"
INDEX 00 45:25:46
INDEX 01 45:28:12

TRACK 135 AUDIO
TITLE "2020.02.06-06:44.32:414431"
INDEX 00 45:30:05
INDEX 01 45:32:06

TRACK 136 AUDIO
TITLE "2020.02.06-06:44.48:514994"
INDEX 00 45:35:29
INDEX 01 45:48:14

TRACK 137 AUDIO
TITLE "2020.02.06-06:45.17:176546"
INDEX 00 45:57:69
INDEX 01 46:16:63

TRACK 138 AUDIO
TITLE "2020.02.06-06:45.28:492496"
INDEX 00 46:21:14
INDEX 01 46:28:12

TRACK 139 AUDIO
TITLE "2020.02.06-06:45.32:432476"
INDEX 00 46:31:30
INDEX 01 46:32:07

TRACK 140 AUDIO
TITLE "2020.02.06-06:45.49:172525"
INDEX 00 46:47:03
INDEX 01 46:48:63

TRACK 141 AUDIO
TITLE "2020.02.06-06:46.02:752541"
INDEX 00 46:57:64
INDEX 01 47:02:31

TRACK 142 AUDIO
TITLE "2020.02.06-06:46.57:092453"
INDEX 00 47:16:04
INDEX 01 47:56:57

TRACK 143 AUDIO
TITLE "2020.02.06-06:47.04:312456"
INDEX 00 48:03:67
INDEX 01 48:03:73

TRACK 144 AUDIO
TITLE "2020.02.06-06:47.21:872481"
INDEX 00 48:14:64
INDEX 01 48:21:40

TRACK 145 AUDIO
TITLE "2020.02.06-06:47.26:114408"
INDEX 00 48:25:34
INDEX 01 48:25:59

TRACK 146 AUDIO
TITLE "2020.02.06-06:48.20:232668"
INDEX 00 48:30:08
INDEX 01 49:19:67

TRACK 147 AUDIO
TITLE "2020.02.06-06:48.56:432378"
INDEX 00 49:34:21
INDEX 01 49:56:07

TRACK 148 AUDIO
TITLE "2020.02.06-06:49.00:132429"
INDEX 00 49:59:36
INDEX 01 49:59:60

TRACK 149 AUDIO
TITLE "2020.02.06-06:49.15:332452"
INDEX 00 50:04:33
INDEX 01 50:15:00

TRACK 150 AUDIO
TITLE "2020.02.06-06:50.11:572422"
INDEX 00 50:22:43
INDEX 01 51:11:18

TRACK 151 AUDIO
TITLE "2020.02.06-06:50.15:952382"
INDEX 00 51:14:66
INDEX 01 51:15:46

TRACK 152 AUDIO
TITLE "2020.02.06-06:50.48:116956"
INDEX 00 51:20:15
INDEX 01 51:47:59

TRACK 153 AUDIO
TITLE "2020.02.06-06:51.25:352583"
INDEX 00 51:56:29
INDEX 01 52:25:01

TRACK 154 AUDIO
TITLE "2020.02.06-06:51.29:272449"
INDEX 00 52:28:34
INDEX 01 52:28:70

TRACK 155 AUDIO
TITLE "2020.02.06-06:51.54:192739"
INDEX 00 52:46:51
INDEX 01 52:53:64

TRACK 156 AUDIO
TITLE "2020.02.06-06:52.05:456049"
INDEX 00 53:03:09
INDEX 01 53:05:09

TRACK 157 AUDIO
TITLE "2020.02.06-06:52.18:432492"
INDEX 00 53:12:62
INDEX 01 53:18:07

TRACK 158 AUDIO
TITLE "2020.02.06-06:52.41:032393"
INDEX 00 53:27:63
INDEX 01 53:40:52

TRACK 159 AUDIO
TITLE "2020.02.06-06:52.58:352578"
INDEX 00 53:49:61
INDEX 01 53:58:01

TRACK 160 AUDIO
TITLE "2020.02.06-06:53.16:472515"
INDEX 00 53:59:25
INDEX 01 54:16:10

TRACK 161 AUDIO
TITLE "2020.02.06-06:53.33:492495"
INDEX 00 54:22:61
INDEX 01 54:33:12

TRACK 162 AUDIO
TITLE "2020.02.06-06:53.50:855796"
INDEX 00 54:49:01
INDEX 01 54:50:39

TRACK 163 AUDIO
TITLE "2020.02.06-06:53.56:912355"
INDEX 00 54:55:05
INDEX 01 54:56:43

TRACK 164 AUDIO
TITLE "2020.02.06-06:54.17:352669"
INDEX 00 54:57:57
INDEX 01 55:17:01

TRACK 165 AUDIO
TITLE "2020.02.06-06:54.35:972471"
INDEX 00 55:24:49
INDEX 01 55:35:48

TRACK 166 AUDIO
TITLE "2020.02.06-06:54.39:472518"
INDEX 00 55:39:01
INDEX 01 55:39:10

TRACK 167 AUDIO
TITLE "2020.02.06-06:55.06:712400"
INDEX 00 55:42:22
INDEX 01 56:06:28

TRACK 168 AUDIO
TITLE "2020.02.06-06:55.58:912582"
INDEX 00 56:14:31
INDEX 01 56:58:43

TRACK 169 AUDIO
TITLE "2020.02.06-06:56.08:592530"
INDEX 00 57:06:06
INDEX 01 57:08:19

TRACK 170 AUDIO
TITLE "2020.02.06-06:56.26:672332"
INDEX 00 57:26:01
INDEX 01 57:26:25

TRACK 171 AUDIO
TITLE "2020.02.06-06:56.57:212521"
INDEX 00 57:35:73
INDEX 01 57:56:66

TRACK 172 AUDIO
TITLE "2020.02.06-06:57.29:712541"
INDEX 00 58:03:00
INDEX 01 58:29:28

TRACK 173 AUDIO
TITLE "2020.02.06-06:57.44:292501"
INDEX 00 58:41:72
INDEX 01 58:43:72

TRACK 174 AUDIO
TITLE "2020.02.06-06:58.47:452540"
INDEX 00 58:55:40
INDEX 01 59:47:09

TRACK 175 AUDIO
TITLE "2020.02.06-06:58.57:312586"
INDEX 00 59:56:30
INDEX 01 59:56:73

TRACK 176 AUDIO
TITLE "2020.02.06-06:59.03:572598"
INDEX 00 60:03:07
INDEX 01 60:03:18

TRACK 177 AUDIO
TITLE "2020.02.06-06:59.08:793591"
INDEX 00 60:07:48
INDEX 01 60:08:34

TRACK 178 AUDIO
TITLE "2020.02.06-06:59.24:632512"
INDEX 00 60:15:55
INDEX 01 60:24:22

TRACK 179 AUDIO
TITLE "2020.02.06-06:59.49:174009"
INDEX 00 60:45:33
INDEX 01 60:48:63

TRACK 180 AUDIO
TITLE "2020.02.06-07:00.10:296721"
INDEX 00 60:59:47
INDEX 01 61:09:72

TRACK 181 AUDIO
TITLE "2020.02.06-07:00.51:732482"
INDEX 00 61:16:11
INDEX 01 61:51:30

TRACK 182 AUDIO
TITLE "2020.02.06-07:01.04:592508"
INDEX 00 61:57:52
INDEX 01 62:04:19

TRACK 183 AUDIO
TITLE "2020.02.06-07:01.07:492550"
INDEX 00 62:06:60
INDEX 01 62:07:12

